<?xml version="1.0" encoding="UTF-8"?>
<svg id="_レイヤー_2" data-name="レイヤー_2" xmlns="http://www.w3.org/2000/svg" version="1.1" viewBox="0 0 227.41 227.41">
  <!-- Generator: Adobe Illustrator 30.6.0, SVG Export Plug-In . SVG Version: 2.1.4 Build 109)  -->
  <defs>
    <style>
      .st0 {
        fill: #25a7a9;
      }

      .st1 {
        fill: #24333d;
      }
    </style>
  </defs>
  <path class="st1" d="M205.39,102.7c0,56.72-45.98,102.7-102.7,102.7S0,159.41,0,102.7,45.98,0,102.7,0s102.7,45.98,102.7,102.7ZM184.34,102.7c0-45.09-36.55-81.64-81.64-81.64S21.05,57.61,21.05,102.7c0,10.8,2.11,21.09,5.92,30.52,6.78-4.02,13.33-10.85,15.58-14.97,1.68-3.08,6.34-14.51,10.72-25.24,1.71,3.58,4.46,7.89,6.81,10.86,3.95,5,10.86,11.36,15.96,13.57,4.66,2.03,9.92,1.63,14.39-.81,5.39-2.95,5.46-10.81,5.58-15.57.12-4.76-1.63-10.34-2.32-12.9-.7-2.56-1.51-10.81-1.52-12.2-.01-1.39-1.04-1.98-1.73,0-.59,1.67,0,11.51,1.05,16.27,1.05,4.76,1.05,14.29-1.05,18.83s-9.53,4.07-13.95,2.44c-4.42-1.63-13.02-11.16-17.2-17.2-2.51-3.63-3.26-6.87-3.21-10.12,1.82-4.43,3.45-8.34,4.6-10.91,4.3-9.65,17.78-22.43,36.61-20.92,18.83,1.51,26.85,7.9,28.24,11.16,2.09,5.46,3.72,9.65,8.37,11.16,0,0,20.69,5.58,23.94,6.39,3.25.81,4.76,1.63,4.18,4.53-.58,2.91-2.21,14.64-5.46,18.94-3.25,4.3-11.04,11.04-17.43,11.16-6.39.12-7.32.58-15.11.93-7.79.35-13.6,16.73-6.04,35.68-4.07-1.86-4.88-2.32-5.93-2.91-1.05-.58-1.63.23-.46,1.39,1.16,1.16,5.93,11.16,5.46,19.76-.21,3.92-.81,7.76-1.4,10.79,38.94-6.21,68.7-39.93,68.7-80.61Z"/>
  <path class="st1" d="M205.39,102.7c0,56.72-45.98,102.7-102.7,102.7S0,159.41,0,102.7,45.98,0,102.7,0s102.7,45.98,102.7,102.7ZM184.34,102.7c0-45.09-36.55-81.64-81.64-81.64S21.05,57.61,21.05,102.7c0,10.8,2.11,21.09,5.92,30.52,6.78-4.02,13.33-10.85,15.58-14.97,1.68-3.08,6.34-14.51,10.72-25.24,1.71,3.58,4.46,7.89,6.81,10.86,3.95,5,10.86,11.36,15.96,13.57,4.66,2.03,9.92,1.63,14.39-.81,5.39-2.95,5.46-10.81,5.58-15.57.12-4.76-1.63-10.34-2.32-12.9-.7-2.56-1.51-10.81-1.52-12.2-.01-1.39-1.04-1.98-1.73,0-.59,1.67,0,11.51,1.05,16.27,1.05,4.76,1.05,14.29-1.05,18.83s-9.53,4.07-13.95,2.44c-4.42-1.63-13.02-11.16-17.2-17.2-2.51-3.63-3.26-6.87-3.21-10.12,1.82-4.43,3.45-8.34,4.6-10.91,4.3-9.65,17.78-22.43,36.61-20.92,18.83,1.51,26.85,7.9,28.24,11.16,2.09,5.46,3.72,9.65,8.37,11.16,0,0,20.69,5.58,23.94,6.39,3.25.81,4.76,1.63,4.18,4.53-.58,2.91-2.21,14.64-5.46,18.94-3.25,4.3-11.04,11.04-17.43,11.16-6.39.12-7.32.58-15.11.93-7.79.35-13.6,16.73-6.04,35.68-4.07-1.86-4.88-2.32-5.93-2.91-1.05-.58-1.63.23-.46,1.39,1.16,1.16,5.93,11.16,5.46,19.76-.21,3.92-.81,7.76-1.4,10.79,38.94-6.21,68.7-39.93,68.7-80.61Z"/>
  <rect class="st0" x="187.98" y="172.69" width="25.65" height="56.23" rx="5.67" ry="5.67" transform="translate(-83.18 200.81) rotate(-45)"/>
</svg>